<svg width="32" height="32" viewBox="0 0 32 32" fill="none" xmlns="http://www.w3.org/2000/svg">
<rect x="1" y="1" width="30" height="30" rx="15" fill="white"/>
<rect x="1" y="1" width="30" height="30" rx="15" stroke="#8A2BE2" stroke-width="2"/>
<path fill-rule="evenodd" clip-rule="evenodd" d="M24.978 15.2221C25.1807 15.4249 25.2946 15.7 25.2946 15.9868C25.2946 16.2736 25.1807 16.5486 24.978 16.7514L18.8595 22.8699C18.7598 22.9732 18.6404 23.0556 18.5085 23.1122C18.3765 23.1689 18.2346 23.1988 18.091 23.2C17.9474 23.2013 17.8049 23.1739 17.672 23.1195C17.5391 23.0651 17.4183 22.9848 17.3168 22.8833C17.2152 22.7817 17.1349 22.661 17.0805 22.528C17.0262 22.3951 16.9988 22.2527 17 22.1091C17.0013 21.9655 17.0311 21.8235 17.0878 21.6916C17.1445 21.5596 17.2269 21.4403 17.3302 21.3405L22.684 15.9868L17.3302 10.633C17.1332 10.429 17.0242 10.1558 17.0266 9.87222C17.0291 9.58863 17.1428 9.31736 17.3434 9.11683C17.5439 8.9163 17.8152 8.80255 18.0988 8.80009C18.3823 8.79763 18.6555 8.90664 18.8595 9.10366L24.978 15.2221Z" fill="#8A2BE2"/>
<path d="M23.5 16H7.5" stroke="#8A2BE2" stroke-width="2" stroke-linecap="round"/>
</svg>
