<svg width="185" height="64" viewBox="0 0 185 64" fill="none" xmlns="http://www.w3.org/2000/svg">
<path d="M2 1.99585L2 61.9958" stroke="black" stroke-width="4" stroke-linecap="round"/>
<path d="M140.565 50.2759C136.966 50.2759 133.612 49.698 130.503 48.5421C127.438 47.3418 124.772 45.6524 122.507 43.474C120.241 41.2957 118.464 38.7394 117.176 35.8052C115.932 32.8711 115.31 29.648 115.31 26.1359C115.31 22.6238 115.932 19.4007 117.176 16.4665C118.464 13.5324 120.241 10.9761 122.507 8.79774C124.817 6.61936 127.504 4.95222 130.569 3.79635C133.635 2.59602 136.989 1.99585 140.631 1.99585C144.674 1.99585 148.316 2.70716 151.559 4.12978C154.847 5.50793 157.601 7.55295 159.822 10.2648L152.892 16.6666C151.293 14.8439 149.516 13.4879 147.561 12.5988C145.607 11.6652 143.474 11.1984 141.164 11.1984C138.988 11.1984 136.989 11.5541 135.167 12.2654C133.346 12.9767 131.769 13.9992 130.436 15.3329C129.103 16.6666 128.06 18.2448 127.304 20.0675C126.594 21.8903 126.238 23.913 126.238 26.1359C126.238 28.3587 126.594 30.3815 127.304 32.2042C128.06 34.027 129.103 35.6052 130.436 36.9389C131.769 38.2726 133.346 39.2951 135.167 40.0064C136.989 40.7177 138.988 41.0734 141.164 41.0734C143.474 41.0734 145.607 40.6288 147.561 39.7397C149.516 38.8061 151.293 37.4057 152.892 35.5385L159.822 41.9403C157.601 44.6521 154.847 46.7194 151.559 48.142C148.316 49.5646 144.652 50.2759 140.565 50.2759Z" fill="black"/>
<path d="M87.3637 49.4757V11.5985H72.4375V2.79607H113.085V11.5985H98.1585V49.4757H87.3637Z" fill="black"/>
<path d="M22.8968 49.4757L43.6868 2.79607H54.3483L75.2049 49.4757H63.8771L46.8186 8.26426H51.0832L33.9581 49.4757H22.8968ZM33.2918 39.4729L36.1571 31.2706H60.1455L63.0774 39.4729H33.2918Z" fill="black"/>
<path d="M159.035 56.8694V55.8525H163V56.8694H159.035ZM159.035 58.9367V57.9197H163V58.9367H159.035Z" fill="black"/>
<path d="M154.049 56.8694V55.8525H158.014V56.8694H154.049ZM154.049 58.9367V57.9197H158.014V58.9367H154.049Z" fill="black"/>
<path d="M147.362 61.9958C147.129 61.9958 146.898 61.9597 146.67 61.8875C146.443 61.8152 146.257 61.7152 146.112 61.5874L146.587 60.6621C146.687 60.7511 146.801 60.8205 146.929 60.8705C147.062 60.9205 147.192 60.9456 147.32 60.9456C147.503 60.9456 147.648 60.9011 147.753 60.8122C147.864 60.7288 147.964 60.5871 148.053 60.3871L148.286 59.8369L148.386 59.6952L149.994 55.8275H151.243L149.219 60.5871C149.075 60.9483 148.908 61.2317 148.719 61.4374C148.536 61.643 148.331 61.7875 148.103 61.8708C147.881 61.9542 147.634 61.9958 147.362 61.9958ZM148.128 60.4871L146.129 55.8275H147.47L149.019 59.5785L148.128 60.4871Z" fill="black"/>
<path d="M144.105 60.3787C143.622 60.3787 143.191 60.2815 142.814 60.087C142.436 59.8869 142.139 59.6118 141.923 59.2618C141.712 58.9117 141.606 58.5143 141.606 58.0698C141.606 57.6196 141.712 57.2223 141.923 56.8778C142.139 56.5277 142.436 56.2554 142.814 56.0609C143.191 55.8608 143.622 55.7608 144.105 55.7608C144.577 55.7608 144.988 55.8608 145.338 56.0609C145.687 56.2554 145.946 56.536 146.112 56.9028L145.104 57.4446C144.988 57.2334 144.841 57.0778 144.663 56.9778C144.491 56.8778 144.302 56.8277 144.097 56.8277C143.874 56.8277 143.675 56.8778 143.497 56.9778C143.319 57.0778 143.178 57.2195 143.072 57.4029C142.972 57.5863 142.922 57.8086 142.922 58.0698C142.922 58.3309 142.972 58.5532 143.072 58.7366C143.178 58.92 143.319 59.0617 143.497 59.1617C143.675 59.2618 143.874 59.3118 144.097 59.3118C144.302 59.3118 144.491 59.2645 144.663 59.1701C144.841 59.07 144.988 58.9117 145.104 58.6949L146.112 59.2451C145.946 59.6063 145.687 59.8869 145.338 60.087C144.988 60.2815 144.577 60.3787 144.105 60.3787Z" fill="black"/>
<path d="M138.871 55.7608C139.227 55.7608 139.543 55.833 139.821 55.9775C140.104 56.1164 140.326 56.3332 140.487 56.6277C140.648 56.9167 140.729 57.289 140.729 57.7447V60.312H139.43V57.9447C139.43 57.5835 139.349 57.3168 139.188 57.1445C139.033 56.9722 138.81 56.8861 138.522 56.8861C138.316 56.8861 138.13 56.9306 137.964 57.0195C137.803 57.1028 137.675 57.2334 137.58 57.4112C137.492 57.5891 137.447 57.8169 137.447 58.0948V60.312H136.148V55.8275H137.389V57.0695L137.156 56.6944C137.317 56.3943 137.547 56.1637 137.847 56.0025C138.147 55.8414 138.488 55.7608 138.871 55.7608Z" fill="black"/>
<path d="M133.756 60.312V59.4368L133.672 59.2451V57.678C133.672 57.4001 133.586 57.1834 133.414 57.0278C133.248 56.8722 132.989 56.7944 132.64 56.7944C132.401 56.7944 132.165 56.8333 131.932 56.9111C131.704 56.9833 131.51 57.0834 131.349 57.2112L130.882 56.3026C131.126 56.1303 131.421 55.997 131.765 55.9025C132.109 55.808 132.459 55.7608 132.815 55.7608C133.498 55.7608 134.028 55.9219 134.405 56.2442C134.783 56.5666 134.972 57.0695 134.972 57.753V60.312H133.756ZM132.39 60.3787C132.04 60.3787 131.74 60.3204 131.49 60.2037C131.24 60.0814 131.049 59.9175 130.915 59.7119C130.782 59.5063 130.716 59.2756 130.716 59.02C130.716 58.7533 130.779 58.5199 130.907 58.3198C131.04 58.1198 131.249 57.9642 131.532 57.853C131.815 57.7363 132.184 57.678 132.64 57.678H133.831V58.4365H132.781C132.476 58.4365 132.265 58.4865 132.148 58.5866C132.037 58.6866 131.982 58.8116 131.982 58.9617C131.982 59.1284 132.045 59.2618 132.173 59.3618C132.306 59.4563 132.487 59.5035 132.715 59.5035C132.931 59.5035 133.125 59.4535 133.298 59.3534C133.47 59.2479 133.595 59.095 133.672 58.895L133.872 59.4952C133.778 59.7841 133.606 60.0036 133.356 60.1537C133.106 60.3037 132.784 60.3787 132.39 60.3787Z" fill="black"/>
<path d="M129.22 60.3787C128.692 60.3787 128.281 60.2454 127.987 59.9786C127.693 59.7063 127.546 59.3034 127.546 58.77V54.8355H128.845V58.7533C128.845 58.9422 128.895 59.0895 128.995 59.1951C129.095 59.2951 129.231 59.3451 129.403 59.3451C129.609 59.3451 129.783 59.2895 129.928 59.1784L130.278 60.0953C130.144 60.1898 129.983 60.262 129.795 60.312C129.611 60.3565 129.42 60.3787 129.22 60.3787ZM126.854 56.9278V55.9275H129.961V56.9278H126.854Z" fill="black"/>
<path d="M124.549 60.312V54.127H125.848V60.312H124.549Z" fill="black"/>
<path d="M120.721 60.3787C120.349 60.3787 120.016 60.3065 119.722 60.162C119.433 60.0175 119.208 59.798 119.047 59.5035C118.886 59.2034 118.805 58.8227 118.805 58.3615V55.8275H120.105V58.1698C120.105 58.5421 120.182 58.8172 120.338 58.995C120.499 59.1673 120.724 59.2534 121.013 59.2534C121.212 59.2534 121.39 59.2117 121.546 59.1284C121.701 59.0395 121.823 58.9061 121.912 58.7283C122.001 58.5449 122.045 58.317 122.045 58.0448V55.8275H123.345V60.312H122.112V59.0784L122.337 59.4368C122.187 59.748 121.965 59.9842 121.671 60.1453C121.382 60.3009 121.065 60.3787 120.721 60.3787Z" fill="black"/>
<path d="M115.913 60.3787C115.53 60.3787 115.161 60.3343 114.805 60.2454C114.455 60.1509 114.178 60.0342 113.972 59.8953L114.405 58.9617C114.611 59.0895 114.852 59.1951 115.13 59.2784C115.413 59.3562 115.691 59.3951 115.963 59.3951C116.263 59.3951 116.474 59.359 116.596 59.2868C116.724 59.2145 116.788 59.1145 116.788 58.9867C116.788 58.8811 116.738 58.8033 116.638 58.7533C116.543 58.6977 116.416 58.656 116.254 58.6282C116.093 58.6005 115.916 58.5727 115.721 58.5449C115.533 58.5171 115.341 58.481 115.147 58.4365C114.952 58.3865 114.775 58.3143 114.614 58.2198C114.453 58.1253 114.322 57.9975 114.222 57.8364C114.128 57.6752 114.081 57.4668 114.081 57.2112C114.081 56.9278 114.161 56.6777 114.322 56.461C114.489 56.2443 114.727 56.0748 115.038 55.9525C115.349 55.8247 115.721 55.7608 116.155 55.7608C116.46 55.7608 116.771 55.7941 117.087 55.8608C117.404 55.9275 117.668 56.0247 117.879 56.1526L117.446 57.0778C117.229 56.95 117.01 56.8639 116.788 56.8194C116.571 56.7694 116.36 56.7444 116.155 56.7444C115.866 56.7444 115.655 56.7833 115.521 56.8611C115.388 56.9389 115.322 57.0389 115.322 57.1612C115.322 57.2723 115.369 57.3557 115.463 57.4112C115.563 57.4668 115.694 57.5113 115.855 57.5446C116.016 57.578 116.191 57.6085 116.379 57.6363C116.574 57.6585 116.768 57.6947 116.962 57.7447C117.157 57.7947 117.332 57.8669 117.487 57.9614C117.648 58.0503 117.779 58.1753 117.879 58.3365C117.979 58.4921 118.029 58.6977 118.029 58.9533C118.029 59.2312 117.945 59.4785 117.779 59.6952C117.612 59.9064 117.371 60.0731 117.054 60.1953C116.743 60.3176 116.363 60.3787 115.913 60.3787Z" fill="black"/>
<path d="M111.37 55.7608C111.725 55.7608 112.042 55.833 112.32 55.9775C112.603 56.1164 112.825 56.3332 112.986 56.6277C113.147 56.9167 113.228 57.289 113.228 57.7447V60.312H111.928V57.9447C111.928 57.5835 111.848 57.3168 111.687 57.1445C111.531 56.9722 111.309 56.8861 111.02 56.8861C110.815 56.8861 110.629 56.9306 110.462 57.0195C110.301 57.1028 110.173 57.2334 110.079 57.4112C109.99 57.5891 109.946 57.8169 109.946 58.0948V60.312H108.646V55.8275H109.887V57.0695L109.654 56.6944C109.815 56.3943 110.046 56.1637 110.346 56.0025C110.645 55.8414 110.987 55.7608 111.37 55.7608Z" fill="black"/>
<path d="M105.321 60.3787C104.843 60.3787 104.418 60.2787 104.046 60.0786C103.68 59.8786 103.388 59.6063 103.172 59.2618C102.961 58.9117 102.855 58.5143 102.855 58.0698C102.855 57.6196 102.961 57.2223 103.172 56.8778C103.388 56.5277 103.68 56.2554 104.046 56.0609C104.418 55.8608 104.843 55.7608 105.321 55.7608C105.793 55.7608 106.215 55.8608 106.587 56.0609C106.959 56.2554 107.25 56.5249 107.461 56.8694C107.672 57.214 107.778 57.6141 107.778 58.0698C107.778 58.5143 107.672 58.9117 107.461 59.2618C107.25 59.6063 106.959 59.8786 106.587 60.0786C106.215 60.2787 105.793 60.3787 105.321 60.3787ZM105.321 59.3118C105.537 59.3118 105.732 59.2618 105.904 59.1617C106.076 59.0617 106.212 58.92 106.312 58.7366C106.412 58.5477 106.462 58.3254 106.462 58.0698C106.462 57.8086 106.412 57.5863 106.312 57.4029C106.212 57.2195 106.076 57.0778 105.904 56.9778C105.732 56.8778 105.537 56.8277 105.321 56.8277C105.104 56.8277 104.91 56.8778 104.738 56.9778C104.566 57.0778 104.427 57.2195 104.321 57.4029C104.221 57.5863 104.171 57.8086 104.171 58.0698C104.171 58.3254 104.221 58.5477 104.321 58.7366C104.427 58.92 104.566 59.0617 104.738 59.1617C104.91 59.2618 105.104 59.3118 105.321 59.3118Z" fill="black"/>
<path d="M100.116 60.4121C99.6664 60.4121 99.2472 60.3398 98.8585 60.1953C98.4753 60.0453 98.1422 59.8341 97.859 59.5618C97.5758 59.2895 97.3537 58.97 97.1926 58.6032C97.0371 58.2365 96.9594 57.8336 96.9594 57.3946C96.9594 56.9556 97.0371 56.5527 97.1926 56.1859C97.3537 55.8191 97.5758 55.4996 97.859 55.2273C98.1477 54.955 98.4837 54.7466 98.8668 54.6021C99.25 54.4521 99.6692 54.3771 100.125 54.3771C100.63 54.3771 101.085 54.466 101.491 54.6438C101.901 54.8161 102.246 55.0717 102.523 55.4107L101.657 56.2109C101.457 55.9831 101.235 55.8136 100.991 55.7024C100.746 55.5857 100.48 55.5274 100.191 55.5274C99.9191 55.5274 99.6692 55.5718 99.4415 55.6608C99.2139 55.7497 99.0167 55.8775 98.8502 56.0442C98.6836 56.2109 98.5531 56.4082 98.4587 56.636C98.3698 56.8639 98.3254 57.1167 98.3254 57.3946C98.3254 57.6724 98.3698 57.9253 98.4587 58.1531C98.5531 58.381 98.6836 58.5782 98.8502 58.7449C99.0167 58.9117 99.2139 59.0395 99.4415 59.1284C99.6692 59.2173 99.9191 59.2618 100.191 59.2618C100.48 59.2618 100.746 59.2062 100.991 59.095C101.235 58.9783 101.457 58.8033 101.657 58.5699L102.523 59.3701C102.246 59.7091 101.901 59.9675 101.491 60.1453C101.085 60.3232 100.627 60.4121 100.116 60.4121Z" fill="black"/>
<path d="M91.8401 55.7608C92.1955 55.7608 92.512 55.833 92.7897 55.9775C93.0729 56.1164 93.295 56.3332 93.456 56.6277C93.617 56.9167 93.6976 57.289 93.6976 57.7447V60.312H92.3982V57.9447C92.3982 57.5835 92.3177 57.3168 92.1566 57.1445C92.0012 56.9722 91.779 56.8861 91.4903 56.8861C91.2848 56.8861 91.0988 56.9306 90.9322 57.0195C90.7712 57.1028 90.6435 57.2334 90.5491 57.4112C90.4602 57.5891 90.4158 57.8169 90.4158 58.0948V60.312H89.1164V54.127H90.4158V57.0695L90.1243 56.6944C90.2853 56.3943 90.5158 56.1637 90.8156 56.0025C91.1155 55.8414 91.457 55.7608 91.8401 55.7608Z" fill="black"/>
<path d="M86.3853 60.3787C85.9022 60.3787 85.4719 60.2815 85.0943 60.087C84.7167 59.8869 84.4196 59.6118 84.203 59.2618C83.992 58.9117 83.8865 58.5143 83.8865 58.0698C83.8865 57.6196 83.992 57.2223 84.203 56.8778C84.4196 56.5277 84.7167 56.2554 85.0943 56.0609C85.4719 55.8608 85.9022 55.7608 86.3853 55.7608C86.8573 55.7608 87.2682 55.8608 87.6181 56.0609C87.9679 56.2554 88.2261 56.536 88.3927 56.9028L87.3848 57.4446C87.2682 57.2334 87.1211 57.0778 86.9434 56.9778C86.7713 56.8778 86.5825 56.8277 86.377 56.8277C86.1549 56.8277 85.955 56.8778 85.7773 56.9778C85.5996 57.0778 85.458 57.2195 85.3525 57.4029C85.2525 57.5863 85.2026 57.8086 85.2026 58.0698C85.2026 58.3309 85.2525 58.5532 85.3525 58.7366C85.458 58.92 85.5996 59.0617 85.7773 59.1617C85.955 59.2618 86.1549 59.3118 86.377 59.3118C86.5825 59.3118 86.7713 59.2645 86.9434 59.1701C87.1211 59.07 87.2682 58.9117 87.3848 58.6949L88.3927 59.2451C88.2261 59.6063 87.9679 59.8869 87.6181 60.087C87.2682 60.2815 86.8573 60.3787 86.3853 60.3787Z" fill="black"/>
<path d="M81.189 60.3787C80.6781 60.3787 80.2284 60.2787 79.8397 60.0786C79.4565 59.8786 79.1594 59.6063 78.9484 59.2618C78.7374 58.9117 78.6319 58.5143 78.6319 58.0698C78.6319 57.6196 78.7346 57.2223 78.9401 56.8778C79.1511 56.5277 79.4371 56.2554 79.798 56.0609C80.1589 55.8608 80.5671 55.7608 81.0224 55.7608C81.4611 55.7608 81.8553 55.8553 82.2052 56.0442C82.5606 56.2276 82.841 56.4943 83.0464 56.8444C83.2519 57.189 83.3546 57.603 83.3546 58.0864C83.3546 58.1364 83.3518 58.1948 83.3463 58.2615C83.3407 58.3226 83.3352 58.381 83.3296 58.4365H79.6897V57.678H82.6466L82.1469 57.903C82.1469 57.6696 82.0997 57.4668 82.0053 57.2945C81.9109 57.1223 81.7804 56.9889 81.6138 56.8944C81.4472 56.7944 81.2529 56.7444 81.0307 56.7444C80.8086 56.7444 80.6115 56.7944 80.4394 56.8944C80.2728 56.9889 80.1423 57.1251 80.0479 57.3029C79.9535 57.4751 79.9063 57.6808 79.9063 57.9197V58.1198C79.9063 58.3643 79.959 58.581 80.0645 58.77C80.1756 58.9533 80.3283 59.095 80.5227 59.1951C80.7226 59.2895 80.9558 59.3368 81.2223 59.3368C81.4611 59.3368 81.6693 59.3007 81.847 59.2284C82.0303 59.1562 82.1968 59.0478 82.3468 58.9033L83.0381 59.6535C82.8327 59.8869 82.5744 60.0675 82.2635 60.1953C81.9525 60.3176 81.5944 60.3787 81.189 60.3787Z" fill="black"/>
<path d="M75.5711 60.312V55.5774H73.7053V54.4771H78.7862V55.5774H76.9204V60.312H75.5711Z" fill="black"/>
<path d="M70.1256 60.3787C69.5981 60.3787 69.1871 60.2454 68.8928 59.9786C68.5985 59.7063 68.4514 59.3034 68.4514 58.77V54.8355H69.7508V58.7533C69.7508 58.9422 69.8007 59.0895 69.9007 59.1951C70.0006 59.2951 70.1367 59.3451 70.3088 59.3451C70.5143 59.3451 70.6892 59.2895 70.8336 59.1784L71.1834 60.0953C71.0501 60.1898 70.8891 60.262 70.7003 60.312C70.5171 60.3565 70.3255 60.3787 70.1256 60.3787ZM67.7601 56.9278V55.9275H70.8669V56.9278H67.7601Z" fill="black"/>
<path d="M65.3758 60.3787C64.9926 60.3787 64.6234 60.3343 64.268 60.2454C63.9182 60.1509 63.6405 60.0342 63.4351 59.8953L63.8682 58.9617C64.0736 59.0895 64.3152 59.1951 64.5928 59.2784C64.876 59.3562 65.1537 59.3951 65.4258 59.3951C65.7256 59.3951 65.9366 59.359 66.0588 59.2868C66.1865 59.2145 66.2504 59.1145 66.2504 58.9867C66.2504 58.8811 66.2004 58.8033 66.1004 58.7533C66.006 58.6977 65.8783 58.656 65.7173 58.6282C65.5563 58.6005 65.3786 58.5727 65.1842 58.5449C64.9954 58.5171 64.8038 58.481 64.6095 58.4365C64.4151 58.3865 64.2374 58.3143 64.0764 58.2198C63.9154 58.1253 63.7849 57.9975 63.6849 57.8364C63.5905 57.6752 63.5433 57.4668 63.5433 57.2112C63.5433 56.9278 63.6239 56.6777 63.7849 56.461C63.9515 56.2443 64.1902 56.0748 64.5012 55.9525C64.8122 55.8247 65.1842 55.7608 65.6173 55.7608C65.9227 55.7608 66.2337 55.7941 66.5502 55.8608C66.8667 55.9275 67.1305 56.0247 67.3415 56.1526L66.9084 57.0778C66.6918 56.95 66.4725 56.8639 66.2504 56.8194C66.0338 56.7694 65.8228 56.7444 65.6173 56.7444C65.3286 56.7444 65.1176 56.7833 64.9843 56.8611C64.851 56.9389 64.7844 57.0389 64.7844 57.1612C64.7844 57.2723 64.8316 57.3557 64.926 57.4112C65.026 57.4668 65.1564 57.5113 65.3175 57.5446C65.4785 57.578 65.6534 57.6085 65.8422 57.6363C66.0366 57.6585 66.2309 57.6947 66.4253 57.7447C66.6196 57.7947 66.7945 57.8669 66.95 57.9614C67.1111 58.0503 67.2416 58.1753 67.3415 58.3365C67.4415 58.4921 67.4914 58.6977 67.4914 58.9533C67.4914 59.2312 67.4081 59.4785 67.2416 59.6952C67.075 59.9064 66.8334 60.0731 66.5169 60.1953C66.2059 60.3176 65.8256 60.3787 65.3758 60.3787Z" fill="black"/>
<path d="M60.5425 60.3787C60.065 60.3787 59.6402 60.2787 59.2681 60.0786C58.9016 59.8786 58.6101 59.6063 58.3935 59.2618C58.1825 58.9117 58.077 58.5143 58.077 58.0698C58.077 57.6196 58.1825 57.2223 58.3935 56.8778C58.6101 56.5277 58.9016 56.2554 59.2681 56.0609C59.6402 55.8608 60.065 55.7608 60.5425 55.7608C61.0145 55.7608 61.4365 55.8608 61.8086 56.0609C62.1806 56.2554 62.4721 56.5249 62.6831 56.8694C62.8941 57.214 62.9997 57.6141 62.9997 58.0698C62.9997 58.5143 62.8941 58.9117 62.6831 59.2618C62.4721 59.6063 62.1806 59.8786 61.8086 60.0786C61.4365 60.2787 61.0145 60.3787 60.5425 60.3787ZM60.5425 59.3118C60.7591 59.3118 60.9534 59.2618 61.1256 59.1617C61.2977 59.0617 61.4337 58.92 61.5337 58.7366C61.6336 58.5477 61.6836 58.3254 61.6836 58.0698C61.6836 57.8086 61.6336 57.5863 61.5337 57.4029C61.4337 57.2195 61.2977 57.0778 61.1256 56.9778C60.9534 56.8778 60.7591 56.8277 60.5425 56.8277C60.3259 56.8277 60.1316 56.8778 59.9595 56.9778C59.7873 57.0778 59.6485 57.2195 59.543 57.4029C59.443 57.5863 59.3931 57.8086 59.3931 58.0698C59.3931 58.3254 59.443 58.5477 59.543 58.7366C59.6485 58.92 59.7873 59.0617 59.9595 59.1617C60.1316 59.2618 60.3259 59.3118 60.5425 59.3118Z" fill="black"/>
<path d="M55.0845 60.3787C54.607 60.3787 54.1822 60.2787 53.8101 60.0786C53.4436 59.8786 53.1521 59.6063 52.9356 59.2618C52.7245 58.9117 52.619 58.5143 52.619 58.0698C52.619 57.6196 52.7245 57.2223 52.9356 56.8778C53.1521 56.5277 53.4436 56.2554 53.8101 56.0609C54.1822 55.8608 54.607 55.7608 55.0845 55.7608C55.5565 55.7608 55.9785 55.8608 56.3506 56.0609C56.7226 56.2554 57.0141 56.5249 57.2252 56.8694C57.4362 57.214 57.5417 57.6141 57.5417 58.0698C57.5417 58.5143 57.4362 58.9117 57.2252 59.2618C57.0141 59.6063 56.7226 59.8786 56.3506 60.0786C55.9785 60.2787 55.5565 60.3787 55.0845 60.3787ZM55.0845 59.3118C55.3011 59.3118 55.4954 59.2618 55.6676 59.1617C55.8397 59.0617 55.9758 58.92 56.0757 58.7366C56.1757 58.5477 56.2256 58.3254 56.2256 58.0698C56.2256 57.8086 56.1757 57.5863 56.0757 57.4029C55.9758 57.2195 55.8397 57.0778 55.6676 56.9778C55.4954 56.8778 55.3011 56.8277 55.0845 56.8277C54.868 56.8277 54.6736 56.8778 54.5015 56.9778C54.3293 57.0778 54.1905 57.2195 54.085 57.4029C53.985 57.5863 53.9351 57.8086 53.9351 58.0698C53.9351 58.3254 53.985 58.5477 54.085 58.7366C54.1905 58.92 54.3293 59.0617 54.5015 59.1617C54.6736 59.2618 54.868 59.3118 55.0845 59.3118Z" fill="black"/>
<path d="M46.6748 60.312V54.4771H49.5235C50.2564 54.4771 50.8062 54.616 51.1727 54.8939C51.5447 55.1717 51.7307 55.5385 51.7307 55.9942C51.7307 56.2998 51.6558 56.5666 51.5058 56.7944C51.3559 57.0167 51.1505 57.189 50.8895 57.3112C50.6285 57.4335 50.3286 57.4946 49.9899 57.4946L50.1482 57.1528C50.5147 57.1528 50.8395 57.214 51.1227 57.3362C51.4059 57.4529 51.6252 57.628 51.7807 57.8614C51.9417 58.0948 52.0223 58.381 52.0223 58.7199C52.0223 59.2201 51.8251 59.6119 51.4309 59.8953C51.0366 60.1731 50.4563 60.312 49.69 60.312H46.6748ZM48.0159 59.2951H49.5901C49.9399 59.2951 50.2037 59.2395 50.3814 59.1284C50.5646 59.0117 50.6562 58.8283 50.6562 58.5782C50.6562 58.3337 50.5646 58.1531 50.3814 58.0364C50.2037 57.9142 49.9399 57.853 49.5901 57.853H47.9159V56.8694H49.3569C49.6845 56.8694 49.9344 56.8139 50.1065 56.7027C50.2842 56.586 50.3731 56.411 50.3731 56.1776C50.3731 55.9497 50.2842 55.7802 50.1065 55.6691C49.9344 55.5524 49.6845 55.494 49.3569 55.494H48.0159V59.2951Z" fill="black"/>
<path d="M42.8584 61.9958C42.4364 61.9958 42.0282 61.9431 41.634 61.8375C41.2453 61.7374 40.9204 61.5846 40.6594 61.379L41.1759 60.4454C41.3647 60.601 41.6034 60.7233 41.8922 60.8122C42.1865 60.9067 42.4752 60.9539 42.7584 60.9539C43.2193 60.9539 43.5525 60.8511 43.7579 60.6455C43.969 60.4399 44.0745 60.1342 44.0745 59.7286V59.0534L44.1578 57.9281L44.1411 56.7944V55.8275H45.3738V59.5618C45.3738 60.3954 45.1573 61.0095 44.7241 61.404C44.291 61.7986 43.6691 61.9958 42.8584 61.9958ZM42.6585 60.0953C42.242 60.0953 41.8644 60.0064 41.5257 59.8286C41.1925 59.6452 40.9232 59.3923 40.7177 59.07C40.5178 58.7422 40.4179 58.3615 40.4179 57.9281C40.4179 57.489 40.5178 57.1084 40.7177 56.7861C40.9232 56.4582 41.1925 56.2053 41.5257 56.0275C41.8644 55.8497 42.242 55.7608 42.6585 55.7608C43.0361 55.7608 43.3692 55.8386 43.658 55.9942C43.9467 56.1442 44.1716 56.3804 44.3327 56.7027C44.4937 57.0195 44.5742 57.4279 44.5742 57.9281C44.5742 58.4226 44.4937 58.8311 44.3327 59.1534C44.1716 59.4701 43.9467 59.7063 43.658 59.8619C43.3692 60.0175 43.0361 60.0953 42.6585 60.0953ZM42.9167 59.0284C43.1444 59.0284 43.347 58.9839 43.5247 58.895C43.7024 58.8005 43.8412 58.6699 43.9412 58.5032C44.0411 58.3365 44.0911 58.1448 44.0911 57.9281C44.0911 57.7058 44.0411 57.514 43.9412 57.3529C43.8412 57.1862 43.7024 57.0584 43.5247 56.9694C43.347 56.875 43.1444 56.8277 42.9167 56.8277C42.689 56.8277 42.4863 56.875 42.3086 56.9694C42.1309 57.0584 41.9894 57.1862 41.8838 57.3529C41.7839 57.514 41.7339 57.7058 41.7339 57.9281C41.7339 58.1448 41.7839 58.3365 41.8838 58.5032C41.9894 58.6699 42.1309 58.8005 42.3086 58.895C42.4863 58.9839 42.689 59.0284 42.9167 59.0284Z" fill="black"/>
<path d="M33.7399 60.312L36.3387 54.4771H37.6714L40.2784 60.312H38.8624L36.7301 55.1606H37.2632L35.1226 60.312H33.7399ZM35.0393 59.0617L35.3975 58.0364H38.396L38.7625 59.0617H35.0393Z" fill="black"/>
<path d="M26.9862 56.8694V55.8525H30.951V56.8694H26.9862ZM26.9862 58.9367V57.9197H30.951V58.9367H26.9862Z" fill="black"/>
<path d="M22 56.8694V55.8525H25.9648V56.8694H22ZM22 58.9367V57.9197H25.9648V58.9367H22Z" fill="black"/>
<path d="M183 1.99585V61.9958" stroke="black" stroke-width="4" stroke-linecap="round"/>
</svg>
