<svg width="243" height="66" viewBox="0 0 243 66" fill="none" xmlns="http://www.w3.org/2000/svg">
<path d="M3.5 2.99585L3.5 62.9958" stroke="black" stroke-width="6" stroke-linecap="round"/>
<path d="M212.681 33.5955C209.941 33.5955 207.807 32.904 206.279 31.521C204.751 30.1091 203.987 28.0202 203.987 25.2541V4.85431H210.734V25.1677C210.734 26.1473 210.994 26.9109 211.513 27.4583C212.032 27.9769 212.739 28.2363 213.632 28.2363C214.699 28.2363 215.608 27.9481 216.357 27.3719L218.174 32.1261C217.482 32.6159 216.646 32.9904 215.665 33.2498C214.714 33.4803 213.719 33.5955 212.681 33.5955ZM200.396 15.1839V9.99747H216.531V15.1839H200.396Z" fill="black"/>
<path d="M188.015 33.5955C186.025 33.5955 184.107 33.365 182.262 32.904C180.445 32.4142 179.003 31.8091 177.936 31.0888L180.186 26.2481C181.253 26.9109 182.507 27.4583 183.949 27.8905C185.419 28.2939 186.861 28.4956 188.274 28.4956C189.831 28.4956 190.927 28.3083 191.562 27.9337C192.225 27.5591 192.557 27.0405 192.557 26.3778C192.557 25.8304 192.297 25.427 191.778 25.1677C191.288 24.8795 190.624 24.6634 189.788 24.5194C188.952 24.3753 188.029 24.2312 187.02 24.0872C186.039 23.9431 185.045 23.7558 184.035 23.5253C183.026 23.266 182.103 22.8914 181.267 22.4016C180.431 21.9118 179.753 21.249 179.234 20.4135C178.744 19.5779 178.499 18.4974 178.499 17.172C178.499 15.7025 178.917 14.4059 179.753 13.2822C180.618 12.1585 181.858 11.2797 183.473 10.6458C185.088 9.98307 187.02 9.65171 189.269 9.65171C190.855 9.65171 192.47 9.82459 194.114 10.1704C195.757 10.5161 197.127 11.0203 198.223 11.683L195.974 16.4805C194.849 15.8177 193.71 15.3711 192.557 15.1406C191.432 14.8813 190.336 14.7517 189.269 14.7517C187.77 14.7517 186.674 14.9534 185.982 15.3567C185.29 15.7601 184.944 16.2788 184.944 16.9127C184.944 17.4889 185.189 17.9211 185.679 18.2092C186.198 18.4974 186.876 18.7279 187.712 18.9008C188.548 19.0736 189.457 19.2321 190.437 19.3762C191.446 19.4914 192.456 19.6787 193.465 19.938C194.474 20.1974 195.383 20.5719 196.19 21.0618C197.026 21.5228 197.704 22.1711 198.223 23.0067C198.742 23.8134 199.002 24.8795 199.002 26.2049C199.002 27.6456 198.569 28.9278 197.704 30.0515C196.839 31.1464 195.584 32.0108 193.941 32.6447C192.326 33.2786 190.351 33.5955 188.015 33.5955Z" fill="black"/>
<path d="M162.915 33.5955C160.435 33.5955 158.229 33.0769 156.297 32.0396C154.394 31.0023 152.88 29.5905 151.755 27.8041C150.66 25.9888 150.112 23.9287 150.112 21.6236C150.112 19.2897 150.66 17.2296 151.755 15.4432C152.88 13.6279 154.394 12.2161 156.297 11.2076C158.229 10.1704 160.435 9.65171 162.915 9.65171C165.366 9.65171 167.558 10.1704 169.49 11.2076C171.422 12.2161 172.936 13.6135 174.032 15.4C175.127 17.1864 175.675 19.2609 175.675 21.6236C175.675 23.9287 175.127 25.9888 174.032 27.8041C172.936 29.5905 171.422 31.0023 169.49 32.0396C167.558 33.0769 165.366 33.5955 162.915 33.5955ZM162.915 28.0634C164.04 28.0634 165.049 27.8041 165.943 27.2854C166.837 26.7668 167.543 26.032 168.062 25.0812C168.582 24.1016 168.841 22.949 168.841 21.6236C168.841 20.2694 168.582 19.1169 168.062 18.166C167.543 17.2152 166.837 16.4805 165.943 15.9618C165.049 15.4432 164.04 15.1839 162.915 15.1839C161.79 15.1839 160.781 15.4432 159.887 15.9618C158.993 16.4805 158.272 17.2152 157.725 18.166C157.205 19.1169 156.946 20.2694 156.946 21.6236C156.946 22.949 157.205 24.1016 157.725 25.0812C158.272 26.032 158.993 26.7668 159.887 27.2854C160.781 27.8041 161.79 28.0634 162.915 28.0634Z" fill="black"/>
<path d="M134.571 33.5955C132.091 33.5955 129.885 33.0769 127.953 32.0396C126.05 31.0023 124.536 29.5905 123.412 27.8041C122.316 25.9888 121.768 23.9287 121.768 21.6236C121.768 19.2897 122.316 17.2296 123.412 15.4432C124.536 13.6279 126.05 12.2161 127.953 11.2076C129.885 10.1704 132.091 9.65171 134.571 9.65171C137.022 9.65171 139.214 10.1704 141.146 11.2076C143.078 12.2161 144.592 13.6135 145.688 15.4C146.784 17.1864 147.332 19.2609 147.332 21.6236C147.332 23.9287 146.784 25.9888 145.688 27.8041C144.592 29.5905 143.078 31.0023 141.146 32.0396C139.214 33.0769 137.022 33.5955 134.571 33.5955ZM134.571 28.0634C135.696 28.0634 136.705 27.8041 137.599 27.2854C138.493 26.7668 139.2 26.032 139.719 25.0812C140.238 24.1016 140.497 22.949 140.497 21.6236C140.497 20.2694 140.238 19.1169 139.719 18.166C139.2 17.2152 138.493 16.4805 137.599 15.9618C136.705 15.4432 135.696 15.1839 134.571 15.1839C133.447 15.1839 132.437 15.4432 131.544 15.9618C130.65 16.4805 129.929 17.2152 129.381 18.166C128.862 19.1169 128.602 20.2694 128.602 21.6236C128.602 22.949 128.862 24.1016 129.381 25.0812C129.929 26.032 130.65 26.7668 131.544 27.2854C132.437 27.8041 133.447 28.0634 134.571 28.0634Z" fill="black"/>
<path d="M90.8992 33.2498V2.99585H105.692C109.499 2.99585 112.354 3.71618 114.257 5.15684C116.189 6.59751 117.155 8.49918 117.155 10.8619C117.155 12.4466 116.766 13.8296 115.987 15.011C115.208 16.1635 114.141 17.0567 112.786 17.6906C111.431 18.3245 109.874 18.6414 108.115 18.6414L108.936 16.8694C110.84 16.8694 112.527 17.1864 113.997 17.8203C115.468 18.4253 116.607 19.333 117.414 20.5431C118.251 21.7533 118.669 23.2372 118.669 24.9948C118.669 27.588 117.645 29.6193 115.598 31.0888C113.55 32.5294 110.537 33.2498 106.557 33.2498H90.8992ZM97.8632 27.9769H106.038C107.855 27.9769 109.225 27.6888 110.148 27.1125C111.099 26.5075 111.575 25.5566 111.575 24.26C111.575 22.9923 111.099 22.0558 110.148 21.4507C109.225 20.8168 107.855 20.4999 106.038 20.4999H97.3441V15.4H104.827C106.529 15.4 107.826 15.1118 108.72 14.5356C109.643 13.9305 110.104 13.0229 110.104 11.8127C110.104 10.6314 109.643 9.75256 108.72 9.17629C107.826 8.57121 106.529 8.26868 104.827 8.26868H97.8632V27.9769Z" fill="black"/>
<path d="M71.08 41.9802C68.8884 41.9802 66.7689 41.7065 64.7215 41.159C62.703 40.6404 61.016 39.848 59.6607 38.7819L62.3425 33.9413C63.323 34.7481 64.5629 35.382 66.0624 35.843C67.5908 36.3328 69.0903 36.5777 70.5609 36.5777C72.9544 36.5777 74.6846 36.0447 75.7515 34.9786C76.8473 33.9125 77.3952 32.3277 77.3952 30.2244V26.7236L77.8278 20.8889L77.7412 15.011V9.99747H84.143V29.36C84.143 33.682 83.0183 36.8658 80.7691 38.9116C78.5198 40.9573 75.2901 41.9802 71.08 41.9802ZM70.0419 32.1261C67.8791 32.1261 65.9183 31.665 64.1592 30.743C62.429 29.7922 61.0305 28.4812 59.9635 26.81C58.9254 25.11 58.4063 23.1363 58.4063 20.8889C58.4063 18.6126 58.9254 16.6389 59.9635 14.9678C61.0305 13.2678 62.429 11.9568 64.1592 11.0348C65.9183 10.1127 67.8791 9.65171 70.0419 9.65171C72.0028 9.65171 73.733 10.0551 75.2325 10.8619C76.732 11.6398 77.8998 12.8644 78.7361 14.5356C79.5724 16.1779 79.9905 18.2957 79.9905 20.8889C79.9905 23.4533 79.5724 25.571 78.7361 27.2422C77.8998 28.8846 76.732 30.1091 75.2325 30.9159C73.733 31.7227 72.0028 32.1261 70.0419 32.1261ZM71.3828 26.5939C72.5651 26.5939 73.6176 26.3634 74.5404 25.9024C75.4632 25.4126 76.1841 24.7355 76.7031 23.8711C77.2222 23.0067 77.4817 22.0126 77.4817 20.8889C77.4817 19.7364 77.2222 18.7423 76.7031 17.9067C76.1841 17.0423 75.4632 16.3796 74.5404 15.9186C73.6176 15.4288 72.5651 15.1839 71.3828 15.1839C70.2005 15.1839 69.148 15.4288 68.2252 15.9186C67.3024 16.3796 66.5671 17.0423 66.0192 17.9067C65.5001 18.7423 65.2406 19.7364 65.2406 20.8889C65.2406 22.0126 65.5001 23.0067 66.0192 23.8711C66.5671 24.7355 67.3024 25.4126 68.2252 25.9024C69.148 26.3634 70.2005 26.5939 71.3828 26.5939Z" fill="black"/>
<path d="M23.7271 33.2498L37.2226 2.99585H44.1434L57.6821 33.2498H50.3288L39.2556 6.53988H42.0239L30.9074 33.2498H23.7271ZM30.4748 26.7668L32.3348 21.4507H47.9066L49.8098 26.7668H30.4748Z" fill="black"/>
<path d="M211.779 53.0283V51.051H219.5V53.0283H211.779ZM211.779 57.0477V55.0704H219.5V57.0477H211.779Z" fill="black"/>
<path d="M202.069 53.0283V51.051H209.79V53.0283H202.069ZM202.069 57.0477V55.0704H209.79V57.0477H202.069Z" fill="black"/>
<path d="M189.046 62.9959C188.592 62.9959 188.143 62.9256 187.7 62.7852C187.256 62.6447 186.894 62.4502 186.613 62.2017L187.537 60.4027C187.732 60.5755 187.954 60.7106 188.203 60.8078C188.462 60.9051 188.716 60.9537 188.965 60.9537C189.322 60.9537 189.603 60.8673 189.808 60.6944C190.025 60.5323 190.219 60.2568 190.392 59.8678L190.846 58.7981L191.041 58.5226L194.172 51.0023H196.605L192.663 60.2568C192.382 60.9591 192.058 61.5102 191.69 61.91C191.333 62.3097 190.933 62.5907 190.49 62.7527C190.057 62.9148 189.576 62.9959 189.046 62.9959ZM190.538 60.0623L186.645 51.0023H189.257L192.274 58.2957L190.538 60.0623Z" fill="black"/>
<path d="M182.577 59.8516C181.636 59.8516 180.798 59.6625 180.063 59.2843C179.327 58.8954 178.749 58.3605 178.327 57.6798C177.916 56.9991 177.711 56.2265 177.711 55.3621C177.711 54.4869 177.916 53.7144 178.327 53.0445C178.749 52.3638 179.327 51.8343 180.063 51.4561C180.798 51.0672 181.636 50.8727 182.577 50.8727C183.496 50.8727 184.296 51.0672 184.978 51.4561C185.659 51.8343 186.162 52.38 186.486 53.0931L184.523 54.1466C184.296 53.736 184.01 53.4335 183.664 53.239C183.328 53.0445 182.961 52.9472 182.561 52.9472C182.128 52.9472 181.739 53.0445 181.393 53.239C181.047 53.4335 180.771 53.709 180.566 54.0655C180.371 54.4221 180.274 54.8543 180.274 55.3621C180.274 55.87 180.371 56.3022 180.566 56.6587C180.771 57.0153 181.047 57.2908 181.393 57.4853C181.739 57.6798 182.128 57.7771 182.561 57.7771C182.961 57.7771 183.328 57.6852 183.664 57.5015C184.01 57.307 184.296 56.9991 184.523 56.5777L186.486 57.6474C186.162 58.3497 185.659 58.8954 184.978 59.2843C184.296 59.6625 183.496 59.8516 182.577 59.8516Z" fill="black"/>
<path d="M167.081 59.7219V51.0023H169.498V53.4172L169.044 52.6879C169.357 52.1044 169.806 51.656 170.39 51.3427C170.974 51.0293 171.639 50.8727 172.385 50.8727C173.077 50.8727 173.694 51.0131 174.234 51.2941C174.786 51.5642 175.219 51.9856 175.532 52.5583C175.846 53.1201 176.002 53.844 176.002 54.73V59.7219H173.472V55.119C173.472 54.4167 173.315 53.8981 173.002 53.5631C172.699 53.2282 172.266 53.0607 171.704 53.0607C171.304 53.0607 170.942 53.1471 170.617 53.32C170.304 53.4821 170.055 53.736 169.871 54.0818C169.698 54.4275 169.612 54.8705 169.612 55.4108V59.7219H167.081Z" fill="black"/>
<path d="M162.423 59.7219V58.0202L162.261 57.6474V54.6004C162.261 54.0601 162.093 53.6387 161.758 53.3362C161.433 53.0337 160.931 52.8824 160.249 52.8824C159.784 52.8824 159.325 52.958 158.871 53.1093C158.427 53.2498 158.049 53.4443 157.735 53.6928L156.827 51.9262C157.303 51.5912 157.876 51.3319 158.546 51.1482C159.217 50.9645 159.898 50.8727 160.59 50.8727C161.92 50.8727 162.953 51.186 163.688 51.8127C164.423 52.4394 164.791 53.4172 164.791 54.7463V59.7219H162.423ZM159.763 59.8516C159.081 59.8516 158.497 59.7382 158.011 59.5113C157.524 59.2735 157.151 58.9548 156.892 58.555C156.632 58.1552 156.502 57.7068 156.502 57.2098C156.502 56.6912 156.627 56.2373 156.875 55.8484C157.135 55.4594 157.54 55.1568 158.092 54.9407C158.643 54.7138 159.363 54.6004 160.249 54.6004H162.569V56.0753H160.525C159.93 56.0753 159.519 56.1725 159.292 56.367C159.076 56.5615 158.968 56.8046 158.968 57.0963C158.968 57.4205 159.092 57.6798 159.341 57.8743C159.6 58.058 159.952 58.1498 160.395 58.1498C160.817 58.1498 161.195 58.0526 161.531 57.8581C161.866 57.6528 162.109 57.3557 162.261 56.9667L162.65 58.1336C162.466 58.6955 162.131 59.1223 161.644 59.414C161.158 59.7057 160.53 59.8516 159.763 59.8516Z" fill="black"/>
<path d="M153.875 59.8516C152.847 59.8516 152.047 59.5923 151.474 59.0736C150.901 58.5442 150.614 57.7608 150.614 56.7236V49.0736H153.145V56.6912C153.145 57.0585 153.242 57.3449 153.437 57.5501C153.631 57.7446 153.896 57.8419 154.232 57.8419C154.632 57.8419 154.972 57.7338 155.253 57.5177L155.935 59.3006C155.675 59.4842 155.362 59.6247 154.994 59.7219C154.637 59.8084 154.264 59.8516 153.875 59.8516ZM149.268 52.9472V51.0023H155.318V52.9472H149.268Z" fill="black"/>
<path d="M145.427 59.7219V47.696H147.958V59.7219H145.427Z" fill="black"/>
<path d="M137.974 59.8516C137.249 59.8516 136.6 59.7111 136.027 59.4302C135.465 59.1493 135.027 58.7225 134.713 58.1498C134.4 57.5664 134.243 56.8262 134.243 55.9294V51.0023H136.773V55.5566C136.773 56.2806 136.925 56.8154 137.227 57.1612C137.541 57.4961 137.979 57.6636 138.541 57.6636C138.931 57.6636 139.277 57.5826 139.579 57.4205C139.882 57.2476 140.12 56.9883 140.293 56.6425C140.466 56.286 140.553 55.843 140.553 55.3135V51.0023H143.083V59.7219H140.682V57.3232L141.12 58.0202C140.828 58.6252 140.396 59.0845 139.823 59.3978C139.26 59.7003 138.644 59.8516 137.974 59.8516Z" fill="black"/>
<path d="M128.61 59.8516C127.864 59.8516 127.145 59.7652 126.453 59.5923C125.772 59.4086 125.231 59.1817 124.831 58.9116L125.674 57.0963C126.074 57.3449 126.545 57.5501 127.086 57.7122C127.637 57.8635 128.178 57.9391 128.708 57.9391C129.292 57.9391 129.702 57.8689 129.94 57.7284C130.189 57.588 130.313 57.3935 130.313 57.145C130.313 56.9397 130.216 56.7884 130.021 56.6912C129.838 56.5831 129.589 56.5021 129.275 56.448C128.962 56.394 128.616 56.34 128.237 56.286C127.87 56.2319 127.496 56.1617 127.118 56.0753C126.74 55.978 126.393 55.8376 126.08 55.6539C125.766 55.4702 125.512 55.2217 125.318 54.9083C125.134 54.595 125.042 54.1898 125.042 53.6928C125.042 53.1417 125.199 52.6555 125.512 52.2341C125.837 51.8127 126.302 51.4832 126.907 51.2454C127.513 50.9969 128.237 50.8727 129.081 50.8727C129.675 50.8727 130.281 50.9375 130.897 51.0672C131.514 51.1968 132.027 51.3859 132.438 51.6344L131.595 53.4335C131.173 53.1849 130.746 53.0175 130.313 52.931C129.892 52.8338 129.481 52.7852 129.081 52.7852C128.518 52.7852 128.107 52.8608 127.848 53.0121C127.588 53.1633 127.459 53.3578 127.459 53.5955C127.459 53.8116 127.551 53.9737 127.734 54.0818C127.929 54.1898 128.183 54.2762 128.497 54.3411C128.81 54.4059 129.151 54.4653 129.519 54.5194C129.897 54.5626 130.276 54.6328 130.654 54.73C131.033 54.8273 131.373 54.9678 131.676 55.1514C131.99 55.3243 132.244 55.5674 132.438 55.8808C132.633 56.1833 132.73 56.5831 132.73 57.0801C132.73 57.6204 132.568 58.1012 132.244 58.5226C131.919 58.9332 131.449 59.2573 130.833 59.495C130.227 59.7328 129.486 59.8516 128.61 59.8516Z" fill="black"/>
<path d="M114.459 59.7219V51.0023H116.876V53.4172L116.422 52.6879C116.736 52.1044 117.184 51.656 117.768 51.3427C118.352 51.0293 119.017 50.8727 119.764 50.8727C120.456 50.8727 121.072 51.0131 121.613 51.2941C122.164 51.5642 122.597 51.9856 122.91 52.5583C123.224 53.1201 123.381 53.844 123.381 54.73V59.7219H120.85V55.119C120.85 54.4167 120.693 53.8981 120.38 53.5631C120.077 53.2282 119.645 53.0607 119.082 53.0607C118.682 53.0607 118.32 53.1471 117.995 53.32C117.682 53.4821 117.433 53.736 117.249 54.0818C117.076 54.4275 116.99 54.8705 116.99 55.4108V59.7219H114.459Z" fill="black"/>
<path d="M107.983 59.8516C107.053 59.8516 106.226 59.6571 105.501 59.2681C104.787 58.8792 104.22 58.3497 103.798 57.6798C103.387 56.9991 103.182 56.2265 103.182 55.3621C103.182 54.4869 103.387 53.7144 103.798 53.0445C104.22 52.3638 104.787 51.8343 105.501 51.4561C106.226 51.0672 107.053 50.8727 107.983 50.8727C108.902 50.8727 109.724 51.0672 110.448 51.4561C111.173 51.8343 111.741 52.3584 112.152 53.0283C112.563 53.6982 112.768 54.4761 112.768 55.3621C112.768 56.2265 112.563 56.9991 112.152 57.6798C111.741 58.3497 111.173 58.8792 110.448 59.2681C109.724 59.6571 108.902 59.8516 107.983 59.8516ZM107.983 57.7771C108.405 57.7771 108.783 57.6798 109.118 57.4853C109.454 57.2908 109.719 57.0153 109.913 56.6587C110.108 56.2914 110.205 55.8592 110.205 55.3621C110.205 54.8543 110.108 54.4221 109.913 54.0655C109.719 53.709 109.454 53.4335 109.118 53.239C108.783 53.0445 108.405 52.9472 107.983 52.9472C107.561 52.9472 107.183 53.0445 106.847 53.239C106.512 53.4335 106.242 53.709 106.036 54.0655C105.842 54.4221 105.744 54.8543 105.744 55.3621C105.744 55.8592 105.842 56.2914 106.036 56.6587C106.242 57.0153 106.512 57.2908 106.847 57.4853C107.183 57.6798 107.561 57.7771 107.983 57.7771Z" fill="black"/>
<path d="M98.006 59.9164C97.1301 59.9164 96.3137 59.776 95.5567 59.495C94.8106 59.2033 94.1617 58.7927 93.6102 58.2633C93.0587 57.7338 92.6262 57.1125 92.3126 56.3994C92.0098 55.6863 91.8584 54.9029 91.8584 54.0493C91.8584 53.1957 92.0098 52.4124 92.3126 51.6993C92.6262 50.9861 93.0587 50.3648 93.6102 49.8354C94.1726 49.306 94.8268 48.9008 95.5729 48.6198C96.3191 48.3281 97.1355 48.1822 98.0222 48.1822C99.0063 48.1822 99.893 48.3551 100.682 48.7009C101.483 49.0358 102.153 49.5329 102.694 50.192L101.007 51.7479C100.618 51.3049 100.185 50.9753 99.7092 50.7592C99.2334 50.5323 98.7143 50.4189 98.152 50.4189C97.6221 50.4189 97.1355 50.5053 96.6922 50.6782C96.2488 50.8511 95.8649 51.0996 95.5405 51.4237C95.2161 51.7479 94.962 52.1315 94.7781 52.5745C94.6051 53.0175 94.5186 53.5091 94.5186 54.0493C94.5186 54.5896 94.6051 55.0812 94.7781 55.5242C94.962 55.9672 95.2161 56.3508 95.5405 56.6749C95.8649 56.9991 96.2488 57.2476 96.6922 57.4205C97.1355 57.5934 97.6221 57.6798 98.152 57.6798C98.7143 57.6798 99.2334 57.5718 99.7092 57.3557C100.185 57.1288 100.618 56.7884 101.007 56.3346L102.694 57.8905C102.153 58.5496 101.483 59.052 100.682 59.3978C99.893 59.7436 99.0009 59.9164 98.006 59.9164Z" fill="black"/>
<path d="M76.585 59.7219V47.696H79.1154V53.4172L78.5477 52.6879C78.8613 52.1044 79.31 51.656 79.894 51.3427C80.4779 51.0293 81.143 50.8727 81.8891 50.8727C82.5812 50.8727 83.1976 51.0131 83.7383 51.2941C84.2898 51.5642 84.7223 51.9856 85.0359 52.5583C85.3495 53.1201 85.5063 53.844 85.5063 54.73V59.7219H82.9759V55.119C82.9759 54.4167 82.8191 53.8981 82.5055 53.5631C82.2027 53.2282 81.7702 53.0607 81.2078 53.0607C80.8077 53.0607 80.4455 53.1471 80.1211 53.32C79.8075 53.4821 79.5588 53.736 79.3749 54.0818C79.2019 54.4275 79.1154 54.8705 79.1154 55.4108V59.7219H76.585Z" fill="black"/>
<path d="M71.2664 59.8516C70.3256 59.8516 69.4876 59.6625 68.7522 59.2843C68.0169 58.8954 67.4384 58.3605 67.0166 57.6798C66.6057 56.9991 66.4002 56.2265 66.4002 55.3621C66.4002 54.4869 66.6057 53.7144 67.0166 53.0445C67.4384 52.3638 68.0169 51.8343 68.7522 51.4561C69.4876 51.0672 70.3256 50.8727 71.2664 50.8727C72.1856 50.8727 72.9858 51.0672 73.6671 51.4561C74.3483 51.8343 74.8512 52.38 75.1756 53.0931L73.2129 54.1466C72.9858 53.736 72.6992 53.4335 72.3532 53.239C72.018 53.0445 71.6503 52.9472 71.2502 52.9472C70.8176 52.9472 70.4283 53.0445 70.0823 53.239C69.7363 53.4335 69.4605 53.709 69.2551 54.0655C69.0604 54.4221 68.9631 54.8543 68.9631 55.3621C68.9631 55.87 69.0604 56.3022 69.2551 56.6587C69.4605 57.0153 69.7363 57.2908 70.0823 57.4853C70.4283 57.6798 70.8176 57.7771 71.2502 57.7771C71.6503 57.7771 72.018 57.6852 72.3532 57.5015C72.6992 57.307 72.9858 56.9991 73.2129 56.5777L75.1756 57.6474C74.8512 58.3497 74.3483 58.8954 73.6671 59.2843C72.9858 59.6625 72.1856 59.8516 71.2664 59.8516Z" fill="black"/>
<path d="M61.1471 59.8516C60.1522 59.8516 59.2763 59.6571 58.5193 59.2681C57.7732 58.8792 57.1946 58.3497 56.7837 57.6798C56.3728 56.9991 56.1673 56.2265 56.1673 55.3621C56.1673 54.4869 56.3674 53.7144 56.7675 53.0445C57.1784 52.3638 57.7353 51.8343 58.4382 51.4561C59.1411 51.0672 59.9359 50.8727 60.8226 50.8727C61.6769 50.8727 62.4447 51.0564 63.126 51.4237C63.818 51.7803 64.3641 52.2989 64.7642 52.9796C65.1643 53.6496 65.3644 54.4545 65.3644 55.3946C65.3644 55.4918 65.359 55.6053 65.3482 55.7349C65.3374 55.8538 65.3266 55.9672 65.3157 56.0753H58.2274V54.6004H63.9857L63.0124 55.038C63.0124 54.5842 62.9205 54.1898 62.7367 53.8548C62.5528 53.5199 62.2987 53.2606 61.9743 53.0769C61.6499 52.8824 61.2714 52.7852 60.8389 52.7852C60.4063 52.7852 60.0224 52.8824 59.6872 53.0769C59.3628 53.2606 59.1087 53.5253 58.9248 53.8711C58.741 54.206 58.6491 54.6058 58.6491 55.0704V55.4594C58.6491 55.9348 58.7518 56.3562 58.9573 56.7236C59.1736 57.0801 59.4709 57.3557 59.8494 57.5501C60.2387 57.7338 60.6929 57.8257 61.2119 57.8257C61.6769 57.8257 62.0824 57.7554 62.4285 57.615C62.7853 57.4745 63.1097 57.2638 63.4017 56.9829L64.748 58.4416C64.3479 58.8954 63.8451 59.2465 63.2395 59.495C62.6339 59.7328 61.9365 59.8516 61.1471 59.8516Z" fill="black"/>
<path d="M50.2067 59.7219V50.5161H46.5733V48.3767H56.4678V50.5161H52.8344V59.7219H50.2067Z" fill="black"/>
<path d="M33.2102 53.0283V51.051H40.9312V53.0283H33.2102ZM33.2102 57.0477V55.0704H40.9312V57.0477H33.2102Z" fill="black"/>
<path d="M23.5 53.0283V51.051H31.221V53.0283H23.5ZM23.5 57.0477V55.0704H31.221V57.0477H23.5Z" fill="black"/>
<path d="M239.5 2.99585V62.9958" stroke="black" stroke-width="6" stroke-linecap="round"/>
</svg>
