<svg width="40" height="40" viewBox="0 0 40 40" fill="none" xmlns="http://www.w3.org/2000/svg">
<path d="M34.992 28.7697C35.1057 28.4624 22.0457 18.601 22.0457 18.601C20.4107 17.3945 19.5507 17.3755 17.9339 18.601C17.9339 18.601 4.89287 28.4544 5.00264 28.7575L5 28.7598C5.00135 28.7624 5.00352 28.7642 5.00533 28.7666C5.11593 29.0681 5.27681 29.3486 5.48113 29.5963C5.56745 29.7009 5.67147 29.7886 5.77151 29.8797L5.76664 29.8835C5.77461 29.8906 5.78522 29.8938 5.79319 29.9009C6.21718 30.2792 6.75187 30.5241 7.34587 30.594C7.35519 30.5951 7.36269 30.6 7.37201 30.6011H7.40787C7.49818 30.6097 7.58403 30.6314 7.67651 30.6314H32.3319C33.546 30.6314 34.5746 29.8679 34.9832 28.7977C34.988 28.7897 34.9955 28.784 35 28.7758L34.992 28.7697Z" fill="#96A9B2"/>
<path d="M20.0082 17.4694L5.06934 28.6735V12.801C5.06934 11.2539 6.32326 10 7.87037 10H32.146C33.6931 10 34.947 11.2539 34.947 12.801V28.6735L20.0082 17.4694Z" fill="#B9C5C6"/>
<path d="M5.24316 11.8274L17.9978 21.8455C19.6076 23.0335 20.4543 23.0522 22.0462 21.8455L34.7808 11.8433C34.5599 11.4428 34.2291 11.1264 33.8508 10.8742L34.026 10.7369C33.5985 10.3477 33.052 10.0954 32.4454 10.0303L7.57116 10.0312C6.96626 10.0954 6.41891 10.3486 5.99228 10.7369L6.16616 10.8725C5.79227 11.1212 5.46457 11.4322 5.24316 11.8274Z" fill="#EDECE6"/>
<path d="M5.23881 11.8482C5.12682 12.1509 17.9856 21.8602 17.9856 21.8602C19.5954 23.0481 20.4421 23.0669 22.0341 21.8602C22.0341 21.8602 34.8741 12.1587 34.766 11.8602L34.7686 11.858C34.7673 11.8554 34.7652 11.8537 34.7634 11.8513C34.6546 11.5545 34.4962 11.2783 34.295 11.0344C34.21 10.9313 34.1075 10.8451 34.0091 10.7553L34.0139 10.7516C34.006 10.7446 33.9956 10.7413 33.9878 10.7344C33.5703 10.362 33.0438 10.1208 32.459 10.0519C32.4499 10.0508 32.4425 10.0461 32.4333 10.045H32.398C32.3091 10.0365 32.2246 10.0151 32.1335 10.0151H7.85789C6.66251 10.0151 5.64973 10.7669 5.24754 11.8206C5.24274 11.8285 5.23535 11.8342 5.23096 11.8422L5.23881 11.8482Z" fill="#DCE2E2"/>
<path d="M22.0748 12.9258H19.8109C19.7152 12.9258 19.6234 12.9638 19.5558 13.0315C19.4882 13.0991 19.4502 13.1909 19.4502 13.2865V14.5595C19.4502 14.6552 19.4882 14.7469 19.5558 14.8146C19.6234 14.8822 19.7152 14.9202 19.8109 14.9202H21.6519C21.7475 14.9202 21.8393 14.9582 21.9069 15.0259C21.9746 15.0935 22.0126 15.1853 22.0126 15.2809V15.9616C22.0126 16.0573 21.9746 16.1491 21.9069 16.2167C21.8393 16.2843 21.7475 16.3223 21.6519 16.3223H19.8109C19.7152 16.3223 19.6234 16.3603 19.5558 16.428C19.4882 16.4956 19.4502 16.5874 19.4502 16.683V18.0648C19.4502 18.1604 19.4882 18.2522 19.5558 18.3198C19.6234 18.3875 19.7152 18.4255 19.8109 18.4255H22.2321C22.3278 18.4255 22.4195 18.4635 22.4871 18.5311C22.5548 18.5988 22.5928 18.6905 22.5928 18.7862V19.5153C22.5928 19.6109 22.5548 19.7027 22.4871 19.7703C22.4195 19.838 22.3278 19.876 22.2321 19.876H17.7923C17.6967 19.876 17.6049 19.838 17.5373 19.7703C17.4696 19.7027 17.4316 19.6109 17.4316 19.5153V11.8602C17.4316 11.7645 17.4696 11.6728 17.5373 11.6052C17.6049 11.5375 17.6967 11.4995 17.7923 11.4995H22.1764C22.3961 11.4995 22.5648 11.6942 22.5334 11.9117L22.4319 12.6165C22.4195 12.7024 22.3766 12.781 22.311 12.8378C22.2454 12.8946 22.1616 12.9258 22.0748 12.9258Z" fill="#597B91"/>
</svg>
