<svg width="40" height="40" viewBox="0 0 40 40" fill="none" xmlns="http://www.w3.org/2000/svg">
<path d="M5.64259 19.8698C5.64188 22.3987 6.30783 24.868 7.57413 27.0445L5.52148 34.481L13.1912 32.4855C15.3126 33.6314 17.6894 34.2318 20.1047 34.232H20.111C28.0845 34.232 34.575 27.7941 34.5784 19.8811C34.58 16.0467 33.0764 12.441 30.3446 9.72833C27.6134 7.01587 23.9808 5.52128 20.1105 5.51953C12.1361 5.51953 5.646 11.9571 5.64271 19.8698" fill="url(#paint0_linear_31_15)"/>
<path d="M5.12581 19.865C5.12498 22.4849 5.8148 25.0425 7.12625 27.297L5 35L12.9447 32.933C15.1338 34.1173 17.5984 34.7417 20.1063 34.7426H20.1128C28.3723 34.7426 35.096 28.0731 35.0995 19.8769C35.1009 15.9047 33.5433 12.1694 30.7139 9.35953C27.8842 6.55001 24.1218 5.00163 20.1128 5C11.8519 5 5.1291 11.6686 5.12581 19.865ZM9.85719 26.9087L9.56055 26.4415C8.31353 24.474 7.65534 22.2005 7.65628 19.8659C7.65887 13.0533 13.2466 7.51063 20.1175 7.51063C23.4449 7.51203 26.5719 8.79907 28.9239 11.1342C31.2758 13.4696 32.57 16.5741 32.5692 19.8759C32.5661 26.6886 26.9783 32.2319 20.1128 32.2319H20.1078C17.8724 32.2307 15.6799 31.635 13.7679 30.5093L13.3129 30.2416L8.5983 31.4681L9.85719 26.9087Z" fill="url(#paint1_linear_31_15)"/>
<path d="M16.367 13.6507C16.0865 13.032 15.7912 13.0195 15.5244 13.0086C15.306 12.9993 15.0563 13 14.8068 13C14.557 13 14.1513 13.0932 13.8083 13.4648C13.465 13.8367 12.4976 14.7355 12.4976 16.5635C12.4976 18.3916 13.8395 20.1583 14.0265 20.4065C14.2138 20.6542 16.6171 24.5256 20.4233 26.0149C23.5865 27.2526 24.2303 27.0064 24.9168 26.9444C25.6034 26.8825 27.1324 26.0458 27.4443 25.1782C27.7565 24.3107 27.7565 23.567 27.6629 23.4116C27.5693 23.2568 27.3196 23.1638 26.9451 22.9781C26.5706 22.7924 24.7295 21.8934 24.3863 21.7694C24.043 21.6455 23.7933 21.5836 23.5436 21.9557C23.2939 22.3271 22.5768 23.1638 22.3582 23.4116C22.1399 23.66 21.9213 23.6909 21.5469 23.5051C21.1722 23.3187 19.9662 22.9268 18.5355 21.6611C17.4222 20.6762 16.6707 19.46 16.4522 19.0879C16.2338 18.7165 16.4288 18.5151 16.6166 18.33C16.7849 18.1635 16.9912 17.8961 17.1786 17.6792C17.3653 17.4622 17.4276 17.3074 17.5525 17.0596C17.6775 16.8116 17.6149 16.5946 17.5215 16.4087C17.4276 16.2229 16.7 14.3853 16.367 13.6507Z" fill="white"/>
<defs>
<linearGradient id="paint0_linear_31_15" x1="1458.37" y1="2901.66" x2="1458.37" y2="5.51953" gradientUnits="userSpaceOnUse">
<stop stop-color="#1FAF38"/>
<stop offset="1" stop-color="#60D669"/>
</linearGradient>
<linearGradient id="paint1_linear_31_15" x1="1509.98" y1="3005" x2="1509.98" y2="5" gradientUnits="userSpaceOnUse">
<stop stop-color="#F9F9F9"/>
<stop offset="1" stop-color="white"/>
</linearGradient>
</defs>
</svg>
